<svg width="16.000000" height="16.000000" viewBox="0 0 16 16" fill="none" xmlns="http://www.w3.org/2000/svg" xmlns:xlink="http://www.w3.org/1999/xlink">
	<desc>
			Created with Pixso.
	</desc>
	<defs/>
	<rect id="Arrow - Down" width="16.000000" height="16.000000" fill="#FFFFFF" fill-opacity="0"/>
	<g opacity="0.300000" style="mix-blend-mode:normal">
		<path id="Fill 1" d="M14.66 7.99C14.66 11.67 11.67 14.66 8 14.66C4.32 14.66 1.33 11.67 1.33 7.99C1.33 4.32 4.32 1.33 8 1.33C11.67 1.33 14.66 4.32 14.66 7.99Z" fill="#000000" fill-opacity="0" fill-rule="nonzero"/>
		<path id="Fill 1" d="M8 14.66C4.32 14.66 1.33 11.67 1.33 7.99C1.33 4.32 4.32 1.33 8 1.33C11.67 1.33 14.66 4.32 14.66 7.99C14.66 11.67 11.67 14.66 8 14.66Z" stroke="#000000" stroke-opacity="0.400000" stroke-width="1.500000"/>
	</g>
	<path id="Fill 4" d="M10.81 7.03C10.81 7.16 10.76 7.29 10.66 7.39L8.35 9.71C8.26 9.8 8.13 9.86 8 9.86C7.86 9.86 7.74 9.8 7.64 9.71L5.33 7.39C5.13 7.19 5.13 6.87 5.33 6.68C5.52 6.48 5.84 6.49 6.04 6.68L8 8.65L9.96 6.68C10.15 6.49 10.47 6.48 10.66 6.68C10.76 6.78 10.81 6.91 10.81 7.03Z" fill="#000000" fill-opacity="1.000000" fill-rule="nonzero"/>
</svg>
