<svg width="188.000000" height="42.000000" viewBox="0 0 188 42" fill="none" xmlns="http://www.w3.org/2000/svg" xmlns:xlink="http://www.w3.org/1999/xlink">
	<desc>
			Created with Pixso.
	</desc>
	<defs/>
	<path id="RECENT EPISODES" d="M41.7 25.9Q42.75 25.63 43.46 25.15L42.75 23.45Q42.15 23.87 41.29 24.1Q40.42 24.33 39.55 24.33Q38.32 24.33 37.72 24Q37.34 23.79 37.2 23.47Q37.13 23.29 37.13 23.08Q37.13 22.79 37.25 22.57Q37.37 22.37 37.59 22.23Q38.05 21.93 38.91 21.93L41.72 21.93L41.72 20.14L39.05 20.14Q38.29 20.14 37.91 19.87Q37.78 19.77 37.7 19.64Q37.55 19.41 37.55 19.08Q37.55 18.88 37.62 18.71Q37.75 18.4 38.1 18.19Q38.65 17.86 39.74 17.86Q40.57 17.86 41.35 18.06Q41.93 18.21 42.47 18.46L43.1 16.73Q42.43 16.4 41.52 16.22Q40.61 16.03 39.66 16.03Q38.22 16.03 37.22 16.42Q36.23 16.81 35.74 17.47Q35.47 17.84 35.35 18.25Q35.25 18.57 35.25 18.93Q35.25 19.39 35.41 19.79Q35.48 19.96 35.57 20.12Q35.66 20.28 35.79 20.42Q36.06 20.74 36.46 20.95Q35.88 21.18 35.5 21.58Q35.37 21.71 35.27 21.85Q35.11 22.07 35.01 22.31Q34.83 22.74 34.83 23.24Q34.83 23.67 34.97 24.06Q35.1 24.43 35.36 24.76Q35.89 25.42 36.93 25.79Q37.97 26.16 39.45 26.16Q40.64 26.16 41.7 25.9ZM46.94 25.7Q48 26.16 49.26 26.16Q50.54 26.16 51.58 25.71Q52.19 25.45 52.69 25.04Q53.03 24.76 53.31 24.41L51.86 23.07Q51.3 23.72 50.6 24Q50.04 24.23 49.39 24.23Q48.58 24.23 47.92 23.91Q47.84 23.87 47.77 23.83Q47.4 23.63 47.12 23.34Q46.85 23.07 46.65 22.72Q46.62 22.65 46.58 22.59Q46.25 21.92 46.25 21.09Q46.25 20.28 46.57 19.62Q46.61 19.54 46.65 19.47Q46.86 19.11 47.14 18.83Q47.42 18.55 47.77 18.36Q47.84 18.32 47.92 18.28Q48.58 17.96 49.39 17.96Q50.06 17.96 50.62 18.19Q51.31 18.48 51.86 19.11L53.31 17.76Q53.04 17.44 52.73 17.18Q52.22 16.75 51.58 16.48Q50.55 16.03 49.28 16.03Q47.96 16.03 46.87 16.53Q46.71 16.6 46.55 16.68Q45.87 17.05 45.35 17.58Q44.95 17.99 44.65 18.49Q44.5 18.74 44.38 19.01Q43.96 19.96 43.96 21.09Q43.96 22.22 44.37 23.16Q44.49 23.44 44.65 23.71Q44.95 24.2 45.34 24.6Q45.86 25.14 46.55 25.51Q46.74 25.61 46.94 25.7ZM60.96 25.9Q62.02 25.63 62.72 25.15L62.02 23.45Q61.42 23.87 60.55 24.1Q59.68 24.33 58.81 24.33Q57.58 24.33 56.98 24Q56.6 23.79 56.47 23.47Q56.39 23.29 56.39 23.08Q56.39 22.79 56.52 22.57Q56.63 22.37 56.85 22.23Q57.32 21.93 58.17 21.93L60.98 21.93L60.98 20.14L58.31 20.14Q57.55 20.14 57.18 19.87Q57.05 19.77 56.96 19.64Q56.81 19.41 56.81 19.08Q56.81 18.88 56.88 18.71Q57.01 18.4 57.36 18.19Q57.92 17.86 59.01 17.86Q59.84 17.86 60.62 18.06Q61.19 18.21 61.74 18.46L62.37 16.73Q61.7 16.4 60.78 16.22Q59.88 16.03 58.93 16.03Q57.48 16.03 56.49 16.42Q55.49 16.81 55.01 17.47Q54.73 17.84 54.61 18.25Q54.52 18.57 54.52 18.93Q54.52 19.39 54.67 19.79Q54.74 19.96 54.83 20.12Q54.93 20.28 55.05 20.42Q55.32 20.74 55.72 20.95Q55.15 21.18 54.76 21.58Q54.64 21.71 54.53 21.85Q54.37 22.07 54.27 22.31Q54.1 22.74 54.1 23.24Q54.1 23.67 54.23 24.06Q54.37 24.43 54.63 24.76Q55.16 25.42 56.19 25.79Q57.23 26.16 58.71 26.16Q59.91 26.16 60.96 25.9ZM71.43 16.64Q70.55 16.03 69.24 16.03Q68.26 16.03 67.5 16.37Q67.17 16.52 66.88 16.74Q66.52 17.01 66.25 17.39L66.25 16.2L64.05 16.2L64.05 26L66.32 26L66.32 20.48Q66.32 19.23 66.94 18.6L66.94 18.6Q67.1 18.43 67.29 18.31Q67.83 17.96 68.6 17.96Q69.37 17.96 69.87 18.32Q70.01 18.43 70.13 18.55Q70.68 19.15 70.68 20.32L70.68 26L72.95 26L72.95 20.26Q72.95 18.23 71.97 17.13Q71.73 16.85 71.43 16.64ZM81.05 18.35Q81.71 18.58 82.33 18.94L83.1 17.25Q82.11 16.64 80.93 16.34Q80.86 16.32 80.79 16.3Q79.67 16.03 78.48 16.03Q77.37 16.03 76.3 16.28Q76.18 16.3 76.06 16.34Q74.97 16.62 74.02 17.16Q73.95 17.2 73.88 17.25L74.65 18.94Q75.35 18.54 76.1 18.29Q76.72 18.1 77.36 18L77.36 26L79.63 26L79.63 18Q80.36 18.11 81.05 18.35ZM94.34 25.9Q95.39 25.63 96.1 25.15L95.39 23.45Q94.79 23.87 93.93 24.1Q93.06 24.33 92.19 24.33Q90.96 24.33 90.36 24Q89.98 23.79 89.84 23.47Q89.77 23.29 89.77 23.08Q89.77 22.79 89.89 22.57Q90.01 22.37 90.23 22.23Q90.69 21.93 91.55 21.93L94.36 21.93L94.36 20.14L91.69 20.14Q90.93 20.14 90.55 19.87Q90.42 19.77 90.34 19.64Q90.19 19.41 90.19 19.08Q90.19 18.88 90.26 18.71Q90.39 18.4 90.74 18.19Q91.29 17.86 92.38 17.86Q93.21 17.86 93.99 18.06Q94.57 18.21 95.11 18.46L95.74 16.73Q95.07 16.4 94.16 16.22Q93.25 16.03 92.3 16.03Q90.86 16.03 89.86 16.42Q88.87 16.81 88.38 17.47Q88.11 17.84 87.99 18.25Q87.89 18.57 87.89 18.93Q87.89 19.39 88.05 19.79Q88.12 19.96 88.21 20.12Q88.3 20.28 88.43 20.42Q88.7 20.74 89.1 20.95Q88.52 21.18 88.14 21.58Q88.01 21.71 87.91 21.85Q87.75 22.07 87.65 22.31Q87.47 22.74 87.47 23.24Q87.47 23.67 87.61 24.06Q87.74 24.43 88 24.76Q88.53 25.42 89.57 25.79Q90.61 26.16 92.09 26.16Q93.28 26.16 94.34 25.9ZM115.62 25.94Q116.54 26.16 117.52 26.16Q118.86 26.16 119.8 25.76Q120.74 25.35 121.2 24.66Q121.44 24.32 121.55 23.94Q121.68 23.55 121.68 23.12Q121.68 22.22 121.23 21.66Q121.2 21.61 121.16 21.57Q120.89 21.27 120.57 21.05Q120.28 20.86 119.94 20.73Q119.22 20.46 118.1 20.2Q117.03 19.96 116.5 19.72Q116.17 19.56 116.05 19.31Q115.97 19.16 115.97 18.97Q115.97 18.76 116.05 18.59Q116.16 18.34 116.43 18.15Q116.89 17.85 117.84 17.85L117.86 17.85Q119.21 17.85 120.55 18.62L121.25 16.9Q120.58 16.48 119.69 16.25Q119.5 16.21 119.31 16.17Q118.59 16.03 117.85 16.03Q116.51 16.03 115.57 16.43Q114.64 16.84 114.18 17.53Q113.99 17.83 113.87 18.15Q113.72 18.59 113.72 19.08Q113.72 19.99 114.16 20.56Q114.19 20.6 114.23 20.65Q114.54 21 114.91 21.23Q115.17 21.39 115.46 21.5Q116.17 21.77 117.29 22.03Q118.02 22.2 118.45 22.34Q118.87 22.48 119.15 22.71Q119.29 22.84 119.36 22.99Q119.42 23.13 119.42 23.29Q119.42 23.47 119.36 23.62Q119.25 23.88 118.96 24.06Q118.5 24.34 117.53 24.34Q116.66 24.34 115.79 24.06Q114.92 23.78 114.3 23.32L113.53 25.03Q114.18 25.53 115.27 25.85Q115.44 25.9 115.62 25.94ZM125.51 25.65Q126.63 26.16 127.98 26.16Q129.34 26.16 130.45 25.64Q130.59 25.58 130.72 25.51Q131.45 25.11 131.99 24.54Q132.35 24.15 132.63 23.69Q132.83 23.37 132.97 23.03Q133.33 22.14 133.33 21.09Q133.33 20.07 132.98 19.18Q132.83 18.83 132.63 18.5Q132.35 18.03 131.98 17.64Q131.44 17.08 130.72 16.69Q130.58 16.61 130.43 16.54Q129.32 16.03 127.98 16.03Q126.64 16.03 125.53 16.53Q125.37 16.6 125.22 16.69Q124.48 17.09 123.93 17.67Q123.58 18.04 123.3 18.5Q123.12 18.81 122.98 19.14Q122.61 20.04 122.61 21.09Q122.61 22.16 122.99 23.07Q123.12 23.39 123.3 23.69Q123.57 24.14 123.92 24.52Q124.47 25.1 125.22 25.51Q125.37 25.58 125.51 25.65ZM152.86 25.9Q153.92 25.63 154.62 25.15L153.92 23.45Q153.31 23.87 152.45 24.1Q151.58 24.33 150.71 24.33Q149.48 24.33 148.88 24Q148.5 23.79 148.36 23.47Q148.28 23.29 148.28 23.08Q148.28 22.79 148.41 22.57Q148.53 22.37 148.75 22.23Q149.21 21.93 150.07 21.93L152.88 21.93L152.88 20.14L150.21 20.14Q149.45 20.14 149.08 19.87Q148.94 19.77 148.86 19.64Q148.71 19.41 148.71 19.08Q148.71 18.88 148.78 18.71Q148.91 18.4 149.26 18.19Q149.81 17.86 150.9 17.86Q151.73 17.86 152.51 18.06Q153.09 18.21 153.63 18.46L154.26 16.73Q153.59 16.4 152.68 16.22Q151.77 16.03 150.82 16.03Q149.38 16.03 148.38 16.42Q147.39 16.81 146.9 17.47Q146.63 17.84 146.51 18.25Q146.41 18.57 146.41 18.93Q146.41 19.39 146.57 19.79Q146.64 19.96 146.73 20.12Q146.82 20.28 146.95 20.42Q147.22 20.74 147.62 20.95Q147.04 21.18 146.66 21.58Q146.53 21.71 146.43 21.85Q146.27 22.07 146.17 22.31Q145.99 22.74 145.99 23.24Q145.99 23.67 146.13 24.06Q146.26 24.43 146.52 24.76Q147.06 25.42 148.09 25.79Q149.13 26.16 150.61 26.16Q151.8 26.16 152.86 25.9ZM157.27 25.94Q158.19 26.16 159.17 26.16Q160.51 26.16 161.45 25.76Q162.39 25.35 162.85 24.66Q163.09 24.32 163.2 23.94Q163.33 23.55 163.33 23.12Q163.33 22.22 162.88 21.66Q162.85 21.61 162.81 21.57Q162.54 21.27 162.22 21.05Q161.92 20.86 161.59 20.73Q160.87 20.46 159.75 20.2Q158.68 19.96 158.15 19.72Q157.82 19.56 157.7 19.31Q157.62 19.16 157.62 18.97Q157.62 18.76 157.7 18.59Q157.81 18.34 158.08 18.15Q158.54 17.85 159.49 17.85L159.51 17.85Q160.86 17.85 162.2 18.62L162.9 16.9Q162.23 16.48 161.34 16.25Q161.15 16.21 160.96 16.17Q160.24 16.03 159.5 16.03Q158.16 16.03 157.22 16.43Q156.29 16.84 155.83 17.53Q155.64 17.83 155.52 18.15Q155.37 18.59 155.37 19.08Q155.37 19.99 155.81 20.56Q155.84 20.6 155.88 20.65Q156.19 21 156.56 21.23Q156.82 21.39 157.11 21.5Q157.82 21.77 158.94 22.03Q159.67 22.2 160.1 22.34Q160.52 22.48 160.8 22.71Q160.94 22.84 161.01 22.99Q161.07 23.13 161.07 23.29Q161.07 23.47 161.01 23.62Q160.9 23.88 160.61 24.06Q160.15 24.34 159.18 24.34Q158.31 24.34 157.44 24.06Q156.57 23.78 155.95 23.32L155.18 25.03Q155.83 25.53 156.92 25.85Q157.09 25.9 157.27 25.94ZM29.51 23.26L31.4 26L33.84 26L31.64 22.84Q32.43 22.5 32.92 21.91Q33.03 21.78 33.13 21.64Q33.18 21.55 33.23 21.47Q33.65 20.73 33.65 19.75Q33.65 18.77 33.23 18.03Q33.19 17.94 33.13 17.86Q33.04 17.71 32.92 17.57Q32.44 16.98 31.66 16.63Q30.7 16.2 29.4 16.2L25.16 16.2L25.16 26L27.43 26L27.43 23.26L29.51 23.26ZM103.93 16.63Q102.97 16.2 101.67 16.2L97.43 16.2L97.43 26L99.69 26L99.69 23.29L101.67 23.29Q102.97 23.29 103.93 22.87Q104.68 22.53 105.16 21.96Q105.29 21.81 105.4 21.64Q105.48 21.52 105.54 21.4Q105.92 20.68 105.92 19.75Q105.92 18.77 105.5 18.03Q105.46 17.94 105.4 17.86Q105.3 17.71 105.19 17.57Q104.7 16.98 103.93 16.63ZM110.89 24.18L110.89 18.01L112.59 18.01L112.59 16.2L106.92 16.2L106.92 18.01L108.62 18.01L108.62 24.18L106.92 24.18L106.92 26L112.59 26L112.59 24.18L110.89 24.18ZM139.49 16.2L135.04 16.2L135.04 26L139.49 26Q141.09 26 142.31 25.39Q143.14 24.98 143.71 24.35Q144 24.04 144.22 23.67Q144.29 23.56 144.35 23.44Q144.9 22.41 144.9 21.09Q144.9 19.77 144.35 18.74Q144.29 18.63 144.22 18.52Q144 18.15 143.71 17.84Q143.14 17.21 142.31 16.8Q141.09 16.2 139.49 16.2ZM129.19 24Q128.63 24.23 127.98 24.23Q127.3 24.23 126.73 23.99Q126.57 23.92 126.41 23.83Q126.08 23.65 125.82 23.4Q125.52 23.1 125.31 22.72Q125.27 22.65 125.24 22.59Q124.91 21.92 124.91 21.09Q124.91 20.28 125.23 19.62Q125.26 19.54 125.31 19.47Q125.53 19.07 125.85 18.77Q126.1 18.53 126.41 18.36Q126.57 18.27 126.73 18.2Q127.3 17.96 127.98 17.96Q128.63 17.96 129.19 18.19Q129.37 18.26 129.54 18.36Q129.85 18.53 130.1 18.77Q130.42 19.07 130.64 19.47Q130.68 19.54 130.72 19.62Q131.04 20.28 131.04 21.09Q131.04 21.92 130.71 22.59Q130.68 22.65 130.64 22.72Q130.42 23.1 130.12 23.4Q129.86 23.65 129.54 23.83Q129.37 23.93 129.19 24ZM31.07 18.75Q31.36 19.15 31.36 19.75Q31.36 20.33 31.09 20.72Q30.98 20.88 30.82 21.01Q30.29 21.46 29.27 21.46L27.43 21.46L27.43 18.04L29.27 18.04Q30.29 18.04 30.82 18.49Q30.97 18.6 31.07 18.75ZM103.09 21Q102.56 21.45 101.54 21.45L99.69 21.45L99.69 18.04L101.54 18.04Q102.56 18.04 103.09 18.49Q103.24 18.6 103.34 18.75Q103.63 19.15 103.63 19.75Q103.63 20.33 103.35 20.72Q103.24 20.88 103.09 21ZM141.47 23.53Q140.64 24.13 139.38 24.13L137.31 24.13L137.31 18.06L139.38 18.06Q140.64 18.06 141.46 18.65Q141.6 18.76 141.73 18.88Q141.96 19.09 142.13 19.35Q142.6 20.06 142.6 21.09Q142.6 22.13 142.13 22.85Q141.96 23.1 141.73 23.32Q141.6 23.43 141.47 23.53Z" fill="#000000" fill-opacity="1.000000" fill-rule="evenodd"/>
	<rect id="button" rx="7.000000" width="186.000000" height="40.000000" transform="translate(1.000000 1.000000)" stroke="#000000" stroke-opacity="1.000000" stroke-width="2.000000"/>
</svg>
