<svg width="139.000000" height="45.000000" viewBox="0 0 139 45" fill="none" xmlns="http://www.w3.org/2000/svg" xmlns:xlink="http://www.w3.org/1999/xlink">
	<desc>
			Created with Pixso.
	</desc>
	<defs>
		<filter id="filter_3_388_dd" x="0.000000" y="0.000000" width="139.000000" height="45.000000" filterUnits="userSpaceOnUse" color-interpolation-filters="sRGB">
			<feFlood flood-opacity="0" result="BackgroundImageFix"/>
			<feColorMatrix in="SourceAlpha" type="matrix" values="0 0 0 0 0 0 0 0 0 0 0 0 0 0 0 0 0 0 127 0" result="hardAlpha"/>
			<feOffset dx="3" dy="3"/>
			<feGaussianBlur stdDeviation="0"/>
			<feComposite in2="hardAlpha" operator="out" k2="-1" k3="1"/>
			<feColorMatrix type="matrix" values="0 0 0 0 0 0 0 0 0 0 0 0 0 0 0 0 0 0 0.25 0"/>
			<feBlend mode="normal" in2="BackgroundImageFix" result="effect_dropShadow_1"/>
			<feBlend mode="normal" in="SourceGraphic" in2="effect_dropShadow_1" result="shape"/>
		</filter>
	</defs>
	<g filter="url(#filter_3_388_dd)">
		<rect id="button" rx="8.000000" width="136.000000" height="42.000000" fill="#000000" fill-opacity="1.000000"/>
		<path id="SUBSCRIBE" d="M26.49 25.94Q27.41 26.16 28.38 26.16Q29.72 26.16 30.66 25.76Q31.6 25.35 32.06 24.66Q32.3 24.32 32.42 23.94Q32.54 23.55 32.54 23.12Q32.54 22.22 32.1 21.66Q32.06 21.61 32.02 21.57Q31.75 21.27 31.43 21.05Q31.14 20.86 30.8 20.73Q30.09 20.46 28.96 20.2Q27.89 19.96 27.36 19.72Q27.03 19.56 26.91 19.31Q26.84 19.16 26.84 18.97Q26.84 18.76 26.91 18.59Q27.02 18.34 27.29 18.15Q27.75 17.85 28.7 17.85L28.72 17.85Q30.07 17.85 31.42 18.62L32.12 16.9Q31.44 16.48 30.55 16.25Q30.36 16.21 30.17 16.17Q29.45 16.03 28.71 16.03Q27.37 16.03 26.44 16.43Q25.51 16.84 25.04 17.53Q24.85 17.83 24.74 18.15Q24.58 18.59 24.58 19.08Q24.58 19.99 25.02 20.56Q25.05 20.6 25.09 20.65Q25.4 21 25.77 21.23Q26.03 21.39 26.32 21.5Q27.03 21.77 28.15 22.03Q28.88 22.2 29.31 22.34Q29.73 22.48 30.01 22.71Q30.15 22.84 30.22 22.99Q30.28 23.13 30.28 23.29Q30.28 23.47 30.22 23.62Q30.11 23.88 29.82 24.06Q29.36 24.34 28.39 24.34Q27.52 24.34 26.65 24.06Q25.79 23.78 25.16 23.32L24.39 25.03Q25.04 25.53 26.13 25.85Q26.31 25.9 26.49 25.94ZM57.22 25.94Q58.14 26.16 59.11 26.16Q60.45 26.16 61.39 25.76Q62.33 25.35 62.79 24.66Q63.03 24.32 63.15 23.94Q63.27 23.55 63.27 23.12Q63.27 22.22 62.83 21.66Q62.79 21.61 62.75 21.57Q62.48 21.27 62.16 21.05Q61.87 20.86 61.53 20.73Q60.82 20.46 59.69 20.2Q58.62 19.96 58.09 19.72Q57.76 19.56 57.64 19.31Q57.57 19.16 57.57 18.97Q57.57 18.76 57.64 18.59Q57.75 18.34 58.02 18.15Q58.48 17.85 59.43 17.85L59.45 17.85Q60.8 17.85 62.15 18.62L62.85 16.9Q62.17 16.48 61.28 16.25Q61.09 16.21 60.9 16.17Q60.18 16.03 59.44 16.03Q58.1 16.03 57.17 16.43Q56.24 16.84 55.77 17.53Q55.58 17.83 55.47 18.15Q55.31 18.59 55.31 19.08Q55.31 19.99 55.75 20.56Q55.78 20.6 55.82 20.65Q56.13 21 56.5 21.23Q56.76 21.39 57.05 21.5Q57.76 21.77 58.88 22.03Q59.61 22.2 60.04 22.34Q60.46 22.48 60.74 22.71Q60.88 22.84 60.95 22.99Q61.01 23.13 61.01 23.29Q61.01 23.47 60.95 23.62Q60.84 23.88 60.55 24.06Q60.09 24.34 59.12 24.34Q58.25 24.34 57.38 24.06Q56.52 23.78 55.89 23.32L55.12 25.03Q55.77 25.53 56.86 25.85Q57.04 25.9 57.22 25.94ZM67.18 25.7Q68.24 26.16 69.51 26.16Q70.78 26.16 71.82 25.71Q72.43 25.45 72.93 25.04Q73.27 24.76 73.56 24.41L72.1 23.07Q71.55 23.72 70.84 24Q70.29 24.23 69.64 24.23Q68.82 24.23 68.16 23.91Q68.09 23.87 68.01 23.83Q67.65 23.63 67.36 23.34Q67.09 23.07 66.9 22.72Q66.86 22.65 66.83 22.59Q66.5 21.92 66.5 21.09Q66.5 20.28 66.82 19.62Q66.86 19.54 66.9 19.47Q67.1 19.11 67.38 18.83Q67.66 18.55 68.01 18.36Q68.09 18.32 68.16 18.28Q68.82 17.96 69.64 17.96Q70.3 17.96 70.87 18.19Q71.55 18.48 72.1 19.11L73.56 17.76Q73.29 17.44 72.97 17.18Q72.46 16.75 71.83 16.48Q70.8 16.03 69.52 16.03Q68.2 16.03 67.11 16.53Q66.95 16.6 66.8 16.68Q66.11 17.05 65.59 17.58Q65.19 17.99 64.89 18.49Q64.74 18.74 64.62 19.01Q64.2 19.96 64.2 21.09Q64.2 22.22 64.62 23.16Q64.74 23.44 64.89 23.71Q65.19 24.2 65.58 24.6Q66.11 25.14 66.8 25.51Q66.99 25.61 67.18 25.7ZM109.1 25.9Q110.15 25.63 110.85 25.15L110.15 23.45Q109.55 23.87 108.68 24.1Q107.81 24.33 106.95 24.33Q105.71 24.33 105.12 24Q104.74 23.79 104.6 23.47Q104.52 23.29 104.52 23.08Q104.52 22.79 104.65 22.57Q104.76 22.37 104.98 22.23Q105.45 21.93 106.3 21.93L109.12 21.93L109.12 20.14L106.44 20.14Q105.68 20.14 105.31 19.87Q105.18 19.77 105.09 19.64Q104.94 19.41 104.94 19.08Q104.94 18.88 105.01 18.71Q105.14 18.4 105.5 18.19Q106.05 17.86 107.14 17.86Q107.97 17.86 108.75 18.06Q109.32 18.21 109.87 18.46L110.5 16.73Q109.83 16.4 108.92 16.22Q108.01 16.03 107.06 16.03Q105.62 16.03 104.62 16.42Q103.63 16.81 103.14 17.47Q102.87 17.84 102.74 18.25Q102.65 18.57 102.65 18.93Q102.65 19.39 102.81 19.79Q102.87 19.96 102.96 20.12Q103.06 20.28 103.18 20.42Q103.45 20.74 103.85 20.95Q103.28 21.18 102.89 21.58Q102.77 21.71 102.66 21.85Q102.51 22.07 102.41 22.31Q102.23 22.74 102.23 23.24Q102.23 23.67 102.37 24.06Q102.5 24.43 102.76 24.76Q103.29 25.42 104.33 25.79Q105.36 26.16 106.85 26.16Q108.04 26.16 109.1 25.9ZM42.85 26L42.85 16.2L40.59 16.2L40.59 21.71Q40.59 22.96 39.97 23.6Q39.8 23.77 39.61 23.89Q39.08 24.23 38.33 24.23Q37.63 24.23 37.15 23.91Q36.97 23.79 36.83 23.64Q36.27 23.04 36.27 21.87L36.27 16.2L34 16.2L34 21.93Q34 23.96 34.98 25.07Q35.23 25.35 35.53 25.56Q36.4 26.16 37.69 26.16Q39.02 26.16 39.91 25.54Q40.33 25.24 40.66 24.81L40.66 26L42.85 26ZM53.5 21.57Q53.06 21.12 52.37 20.9Q52.81 20.67 53.11 20.33Q53.23 20.18 53.33 20.02Q53.41 19.89 53.47 19.77Q53.67 19.3 53.67 18.74Q53.67 18.16 53.44 17.7Q53.2 17.23 52.71 16.88Q51.76 16.2 49.97 16.2L45.18 16.2L45.18 26L50.25 26Q52.16 26 53.16 25.3Q53.6 25 53.85 24.58Q54.17 24.04 54.17 23.32Q54.17 22.55 53.82 21.99Q53.76 21.88 53.69 21.79Q53.6 21.67 53.5 21.57ZM79.44 23.26L81.33 26L83.76 26L81.56 22.84Q82.35 22.5 82.84 21.91Q82.96 21.78 83.05 21.64Q83.11 21.55 83.16 21.47Q83.58 20.73 83.58 19.75Q83.58 18.77 83.16 18.03Q83.11 17.94 83.06 17.86Q82.96 17.71 82.85 17.57Q82.36 16.98 81.58 16.63Q80.63 16.2 79.32 16.2L75.08 16.2L75.08 26L77.35 26L77.35 23.26L79.44 23.26ZM88.73 24.18L88.73 18.01L90.43 18.01L90.43 16.2L84.76 16.2L84.76 18.01L86.46 18.01L86.46 24.18L84.76 24.18L84.76 26L90.43 26L90.43 24.18L88.73 24.18ZM100.46 21.57Q100.02 21.12 99.33 20.9Q99.76 20.67 100.06 20.33Q100.19 20.18 100.29 20.02Q100.36 19.89 100.42 19.77Q100.63 19.3 100.63 18.74Q100.63 18.16 100.39 17.7Q100.15 17.23 99.67 16.88Q98.71 16.2 96.92 16.2L92.13 16.2L92.13 26L97.2 26Q99.12 26 100.12 25.3Q100.56 25 100.81 24.58Q101.12 24.04 101.12 23.32Q101.12 22.55 100.78 21.99Q100.72 21.88 100.64 21.79Q100.56 21.67 100.46 21.57ZM47.43 20.21L47.43 17.9L49.69 17.9Q50.53 17.9 50.96 18.19Q51.13 18.3 51.23 18.46Q51.39 18.7 51.39 19.05Q51.39 19.4 51.24 19.64Q51.13 19.8 50.96 19.92Q50.53 20.21 49.69 20.21L47.43 20.21ZM94.39 20.21L94.39 17.9L96.64 17.9Q97.48 17.9 97.92 18.19Q98.09 18.3 98.19 18.46Q98.35 18.7 98.35 19.05Q98.35 19.4 98.19 19.64Q98.09 19.8 97.92 19.92Q97.48 20.21 96.64 20.21L94.39 20.21ZM81 18.75Q81.28 19.15 81.28 19.75Q81.28 20.33 81.01 20.72Q80.9 20.88 80.75 21.01Q80.22 21.46 79.2 21.46L77.35 21.46L77.35 18.04L79.2 18.04Q80.22 18.04 80.75 18.49Q80.89 18.6 81 18.75ZM51.43 23.99Q50.97 24.29 50.08 24.29L47.43 24.29L47.43 21.87L50.08 21.87Q51.32 21.87 51.71 22.44Q51.88 22.7 51.88 23.08Q51.88 23.48 51.7 23.74Q51.59 23.89 51.43 23.99ZM98.38 23.99Q97.93 24.29 97.03 24.29L94.39 24.29L94.39 21.87L97.03 21.87Q98.28 21.87 98.66 22.44Q98.84 22.7 98.84 23.08Q98.84 23.48 98.65 23.74Q98.55 23.89 98.38 23.99Z" fill="#FFFFFF" fill-opacity="1.000000" fill-rule="evenodd"/>
	</g>
</svg>
