<svg width="190.000000" height="72.000000" viewBox="0 0 190 72" fill="none" xmlns="http://www.w3.org/2000/svg" xmlns:xlink="http://www.w3.org/1999/xlink">
	<desc>
			Created with Pixso.
	</desc>
	<defs>
		<filter id="filter_3_373_dd" x="0.000000" y="0.000000" width="190.000000" height="72.000000" filterUnits="userSpaceOnUse" color-interpolation-filters="sRGB">
			<feFlood flood-opacity="0" result="BackgroundImageFix"/>
			<feColorMatrix in="SourceAlpha" type="matrix" values="0 0 0 0 0 0 0 0 0 0 0 0 0 0 0 0 0 0 127 0" result="hardAlpha"/>
			<feOffset dx="6" dy="6"/>
			<feGaussianBlur stdDeviation="0"/>
			<feComposite in2="hardAlpha" operator="out" k2="-1" k3="1"/>
			<feColorMatrix type="matrix" values="0 0 0 0 0 0 0 0 0 0 0 0 0 0 0 0 0 0 0.25 0"/>
			<feBlend mode="normal" in2="BackgroundImageFix" result="effect_dropShadow_1"/>
			<feBlend mode="normal" in="SourceGraphic" in2="effect_dropShadow_1" result="shape"/>
		</filter>
	</defs>
	<g filter="url(#filter_3_373_dd)">
		<rect id="button" rx="8.000000" width="184.000000" height="66.000000" fill="#000000" fill-opacity="1.000000"/>
		<path id="SUBSCRIBE" d="M50.49 37.94Q51.41 38.16 52.38 38.16Q53.72 38.16 54.66 37.76Q55.6 37.35 56.06 36.66Q56.3 36.32 56.42 35.94Q56.54 35.55 56.54 35.12Q56.54 34.22 56.1 33.66Q56.06 33.61 56.02 33.57Q55.75 33.27 55.43 33.05Q55.14 32.86 54.8 32.73Q54.09 32.46 52.96 32.2Q51.89 31.96 51.36 31.72Q51.03 31.56 50.91 31.31Q50.84 31.16 50.84 30.97Q50.84 30.76 50.91 30.59Q51.02 30.34 51.29 30.15Q51.75 29.85 52.7 29.85L52.72 29.85Q54.07 29.85 55.42 30.62L56.12 28.9Q55.44 28.48 54.55 28.25Q54.36 28.21 54.17 28.17Q53.45 28.03 52.71 28.03Q51.37 28.03 50.44 28.43Q49.51 28.84 49.04 29.53Q48.85 29.83 48.74 30.15Q48.58 30.59 48.58 31.08Q48.58 31.99 49.02 32.56Q49.05 32.6 49.09 32.65Q49.4 33 49.77 33.23Q50.03 33.39 50.32 33.5Q51.03 33.77 52.15 34.03Q52.88 34.2 53.31 34.34Q53.73 34.48 54.01 34.71Q54.15 34.84 54.22 34.99Q54.28 35.13 54.28 35.29Q54.28 35.47 54.22 35.62Q54.11 35.88 53.82 36.06Q53.36 36.34 52.39 36.34Q51.52 36.34 50.65 36.06Q49.79 35.78 49.16 35.32L48.39 37.03Q49.04 37.53 50.13 37.85Q50.31 37.9 50.49 37.94ZM81.22 37.94Q82.14 38.16 83.11 38.16Q84.45 38.16 85.39 37.76Q86.33 37.35 86.79 36.66Q87.03 36.32 87.15 35.94Q87.27 35.55 87.27 35.12Q87.27 34.22 86.83 33.66Q86.79 33.61 86.75 33.57Q86.48 33.27 86.16 33.05Q85.87 32.86 85.53 32.73Q84.82 32.46 83.69 32.2Q82.62 31.96 82.09 31.72Q81.76 31.56 81.64 31.31Q81.57 31.16 81.57 30.97Q81.57 30.76 81.64 30.59Q81.75 30.34 82.02 30.15Q82.48 29.85 83.43 29.85L83.45 29.85Q84.8 29.85 86.15 30.62L86.85 28.9Q86.17 28.48 85.28 28.25Q85.09 28.21 84.9 28.17Q84.18 28.03 83.44 28.03Q82.1 28.03 81.17 28.43Q80.24 28.84 79.77 29.53Q79.58 29.83 79.47 30.15Q79.31 30.59 79.31 31.08Q79.31 31.99 79.75 32.56Q79.78 32.6 79.82 32.65Q80.13 33 80.5 33.23Q80.76 33.39 81.05 33.5Q81.76 33.77 82.88 34.03Q83.61 34.2 84.04 34.34Q84.46 34.48 84.74 34.71Q84.88 34.84 84.95 34.99Q85.01 35.13 85.01 35.29Q85.01 35.47 84.95 35.62Q84.84 35.88 84.55 36.06Q84.09 36.34 83.12 36.34Q82.25 36.34 81.38 36.06Q80.52 35.78 79.89 35.32L79.12 37.03Q79.77 37.53 80.86 37.85Q81.04 37.9 81.22 37.94ZM91.18 37.7Q92.24 38.16 93.51 38.16Q94.78 38.16 95.82 37.71Q96.43 37.45 96.93 37.04Q97.27 36.76 97.56 36.41L96.1 35.07Q95.55 35.72 94.84 36Q94.29 36.23 93.64 36.23Q92.82 36.23 92.16 35.91Q92.09 35.87 92.01 35.83Q91.65 35.63 91.36 35.34Q91.09 35.07 90.9 34.72Q90.86 34.65 90.83 34.59Q90.5 33.92 90.5 33.09Q90.5 32.28 90.82 31.62Q90.86 31.55 90.9 31.47Q91.1 31.11 91.38 30.83Q91.66 30.55 92.01 30.36Q92.09 30.32 92.16 30.28Q92.82 29.96 93.64 29.96Q94.3 29.96 94.87 30.19Q95.55 30.48 96.1 31.11L97.56 29.76Q97.29 29.44 96.97 29.18Q96.46 28.75 95.83 28.48Q94.8 28.03 93.52 28.03Q92.2 28.03 91.11 28.53Q90.95 28.6 90.8 28.68Q90.11 29.05 89.59 29.58Q89.2 29.99 88.89 30.49Q88.74 30.74 88.62 31.01Q88.2 31.96 88.2 33.09Q88.2 34.22 88.62 35.16Q88.74 35.44 88.89 35.71Q89.19 36.2 89.58 36.6Q90.11 37.14 90.8 37.51Q90.99 37.61 91.18 37.7ZM133.1 37.9Q134.15 37.63 134.85 37.15L134.15 35.45Q133.55 35.87 132.68 36.1Q131.81 36.33 130.95 36.33Q129.71 36.33 129.12 36Q128.74 35.79 128.6 35.47Q128.52 35.29 128.52 35.08Q128.52 34.79 128.65 34.57Q128.76 34.37 128.98 34.23Q129.45 33.93 130.3 33.93L133.12 33.93L133.12 32.14L130.44 32.14Q129.68 32.14 129.31 31.87Q129.18 31.77 129.09 31.64Q128.94 31.41 128.94 31.08Q128.94 30.88 129.01 30.71Q129.14 30.4 129.5 30.19Q130.05 29.86 131.14 29.86Q131.97 29.86 132.75 30.06Q133.32 30.21 133.87 30.46L134.5 28.73Q133.83 28.4 132.92 28.22Q132.01 28.03 131.06 28.03Q129.62 28.03 128.62 28.42Q127.63 28.81 127.14 29.47Q126.87 29.84 126.74 30.25Q126.65 30.57 126.65 30.93Q126.65 31.39 126.81 31.79Q126.87 31.96 126.96 32.12Q127.06 32.28 127.18 32.42Q127.45 32.74 127.85 32.95Q127.28 33.18 126.89 33.58Q126.77 33.71 126.66 33.85Q126.51 34.07 126.41 34.31Q126.23 34.74 126.23 35.24Q126.23 35.67 126.37 36.06Q126.5 36.43 126.76 36.76Q127.29 37.42 128.33 37.79Q129.36 38.16 130.85 38.16Q132.04 38.16 133.1 37.9ZM66.85 38L66.85 28.2L64.59 28.2L64.59 33.71Q64.59 34.96 63.97 35.6Q63.8 35.77 63.61 35.89Q63.08 36.23 62.33 36.23Q61.63 36.23 61.15 35.91Q60.97 35.79 60.83 35.64Q60.27 35.04 60.27 33.87L60.27 28.2L58 28.2L58 33.93Q58 35.96 58.98 37.07Q59.23 37.35 59.53 37.56Q60.4 38.16 61.69 38.16Q63.02 38.16 63.91 37.54Q64.33 37.24 64.66 36.81L64.66 38L66.85 38ZM77.5 33.57Q77.06 33.12 76.37 32.9Q76.81 32.67 77.11 32.33Q77.23 32.18 77.33 32.02Q77.41 31.89 77.47 31.77Q77.67 31.3 77.67 30.74Q77.67 30.16 77.44 29.7Q77.2 29.23 76.71 28.88Q75.76 28.2 73.97 28.2L69.18 28.2L69.18 38L74.25 38Q76.16 38 77.16 37.3Q77.6 37 77.85 36.58Q78.17 36.04 78.17 35.32Q78.17 34.55 77.82 33.99Q77.76 33.88 77.69 33.79Q77.6 33.67 77.5 33.57ZM103.44 35.26L105.33 38L107.76 38L105.56 34.84Q106.35 34.5 106.85 33.91Q106.96 33.78 107.05 33.64Q107.11 33.55 107.16 33.47Q107.58 32.73 107.58 31.75Q107.58 30.77 107.16 30.03Q107.11 29.94 107.06 29.86Q106.96 29.71 106.85 29.57Q106.36 28.98 105.58 28.63Q104.63 28.2 103.32 28.2L99.08 28.2L99.08 38L101.35 38L101.35 35.26L103.44 35.26ZM112.73 36.18L112.73 30.01L114.43 30.01L114.43 28.2L108.76 28.2L108.76 30.01L110.46 30.01L110.46 36.18L108.76 36.18L108.76 38L114.43 38L114.43 36.18L112.73 36.18ZM124.46 33.57Q124.02 33.12 123.33 32.9Q123.76 32.67 124.06 32.33Q124.19 32.18 124.29 32.02Q124.36 31.89 124.42 31.77Q124.63 31.3 124.63 30.74Q124.63 30.16 124.39 29.7Q124.15 29.23 123.67 28.88Q122.71 28.2 120.92 28.2L116.13 28.2L116.13 38L121.2 38Q123.12 38 124.12 37.3Q124.56 37 124.81 36.58Q125.12 36.04 125.12 35.32Q125.12 34.55 124.78 33.99Q124.72 33.88 124.64 33.79Q124.56 33.67 124.46 33.57ZM71.43 32.21L71.43 29.9L73.69 29.9Q74.53 29.9 74.96 30.19Q75.13 30.3 75.23 30.46Q75.39 30.7 75.39 31.05Q75.39 31.4 75.24 31.64Q75.13 31.8 74.96 31.92Q74.53 32.21 73.69 32.21L71.43 32.21ZM118.39 32.21L118.39 29.9L120.64 29.9Q121.48 29.9 121.92 30.19Q122.09 30.3 122.19 30.46Q122.35 30.7 122.35 31.05Q122.35 31.4 122.19 31.64Q122.09 31.8 121.92 31.92Q121.48 32.21 120.64 32.21L118.39 32.21ZM105 30.75Q105.28 31.15 105.28 31.75Q105.28 32.33 105.01 32.72Q104.9 32.88 104.75 33.01Q104.22 33.46 103.2 33.46L101.35 33.46L101.35 30.04L103.2 30.04Q104.22 30.04 104.75 30.49Q104.89 30.6 105 30.75ZM75.43 35.99Q74.97 36.29 74.08 36.29L71.43 36.29L71.43 33.87L74.08 33.87Q75.32 33.87 75.71 34.44Q75.88 34.7 75.88 35.08Q75.88 35.48 75.7 35.74Q75.59 35.89 75.43 35.99ZM122.39 35.99Q121.93 36.29 121.03 36.29L118.39 36.29L118.39 33.87L121.03 33.87Q122.28 33.87 122.66 34.44Q122.84 34.7 122.84 35.08Q122.84 35.48 122.65 35.74Q122.55 35.89 122.39 35.99Z" fill="#FFFFFF" fill-opacity="1.000000" fill-rule="evenodd"/>
	</g>
</svg>
